<mxfile host="app.diagrams.net" agent="Mozilla/5.0 (Windows NT 10.0; Win64; x64) AppleWebKit/537.36 (KHTML, like Gecko) Chrome/138.0.0.0 Safari/537.36" version="28.0.7">
  <diagram name="Page-1" id="Pe-sEIiPD32DCHZcW5rJ">
    <mxGraphModel dx="1042" dy="596" grid="1" gridSize="10" guides="1" tooltips="1" connect="1" arrows="1" fold="1" page="1" pageScale="1" pageWidth="827" pageHeight="1169" math="0" shadow="0">
      <root>
        <mxCell id="0" />
        <mxCell id="1" parent="0" />
        <mxCell id="ML-2b-T_SypkbBfhoKjK-9" style="edgeStyle=orthogonalEdgeStyle;rounded=0;orthogonalLoop=1;jettySize=auto;html=1;exitX=0.5;exitY=1;exitDx=0;exitDy=0;entryX=0.5;entryY=0;entryDx=0;entryDy=0;" parent="1" source="ML-2b-T_SypkbBfhoKjK-1" target="ML-2b-T_SypkbBfhoKjK-2" edge="1">
          <mxGeometry relative="1" as="geometry" />
        </mxCell>
        <mxCell id="ML-2b-T_SypkbBfhoKjK-1" value="Start" style="ellipse;whiteSpace=wrap;html=1;fillColor=#d5e8d4;strokeColor=#82b366;fontSize=14;" parent="1" vertex="1">
          <mxGeometry x="110" y="20" width="100" height="60" as="geometry" />
        </mxCell>
        <mxCell id="ML-2b-T_SypkbBfhoKjK-10" style="edgeStyle=orthogonalEdgeStyle;rounded=0;orthogonalLoop=1;jettySize=auto;html=1;exitX=0.5;exitY=1;exitDx=0;exitDy=0;entryX=0.5;entryY=0;entryDx=0;entryDy=0;" parent="1" source="ML-2b-T_SypkbBfhoKjK-2" target="ML-2b-T_SypkbBfhoKjK-3" edge="1">
          <mxGeometry relative="1" as="geometry" />
        </mxCell>
        <mxCell id="ML-2b-T_SypkbBfhoKjK-2" value="New User?" style="rhombus;whiteSpace=wrap;html=1;fillColor=#e51400;fontColor=#000000;strokeColor=#B20000;fontSize=14;" parent="1" vertex="1">
          <mxGeometry x="95" y="120" width="130" height="80" as="geometry" />
        </mxCell>
        <mxCell id="ML-2b-T_SypkbBfhoKjK-11" style="edgeStyle=orthogonalEdgeStyle;rounded=0;orthogonalLoop=1;jettySize=auto;html=1;exitX=0.5;exitY=1;exitDx=0;exitDy=0;entryX=0.5;entryY=0;entryDx=0;entryDy=0;" parent="1" source="ML-2b-T_SypkbBfhoKjK-3" target="ML-2b-T_SypkbBfhoKjK-5" edge="1">
          <mxGeometry relative="1" as="geometry" />
        </mxCell>
        <mxCell id="ML-2b-T_SypkbBfhoKjK-3" value="Recognize the face&amp;nbsp;" style="shape=parallelogram;perimeter=parallelogramPerimeter;whiteSpace=wrap;html=1;fixedSize=1;fillColor=#FF0080;fontColor=#000000;strokeColor=#A50040;fontSize=14;" parent="1" vertex="1">
          <mxGeometry x="65" y="240" width="190" height="60" as="geometry" />
        </mxCell>
        <mxCell id="ML-2b-T_SypkbBfhoKjK-13" style="edgeStyle=orthogonalEdgeStyle;rounded=0;orthogonalLoop=1;jettySize=auto;html=1;exitX=0.5;exitY=1;exitDx=0;exitDy=0;entryX=0.5;entryY=0;entryDx=0;entryDy=0;" parent="1" source="ML-2b-T_SypkbBfhoKjK-4" target="ML-2b-T_SypkbBfhoKjK-6" edge="1">
          <mxGeometry relative="1" as="geometry" />
        </mxCell>
        <mxCell id="ML-2b-T_SypkbBfhoKjK-4" value="Stored in csv file with Registration Number &amp;amp; Date Time of Entry" style="shape=parallelogram;perimeter=parallelogramPerimeter;whiteSpace=wrap;html=1;fixedSize=1;fillColor=#fa6800;fontColor=#000000;strokeColor=#C73500;fontSize=14;" parent="1" vertex="1">
          <mxGeometry x="57.5" y="490" width="205" height="60" as="geometry" />
        </mxCell>
        <mxCell id="ML-2b-T_SypkbBfhoKjK-12" style="edgeStyle=orthogonalEdgeStyle;rounded=0;orthogonalLoop=1;jettySize=auto;html=1;exitX=0.5;exitY=1;exitDx=0;exitDy=0;entryX=0.5;entryY=0;entryDx=0;entryDy=0;" parent="1" source="ML-2b-T_SypkbBfhoKjK-5" target="ML-2b-T_SypkbBfhoKjK-4" edge="1">
          <mxGeometry relative="1" as="geometry" />
        </mxCell>
        <mxCell id="ML-2b-T_SypkbBfhoKjK-5" value="Face Recognized" style="rhombus;whiteSpace=wrap;html=1;fillColor=#1ba1e2;fontColor=#000000;strokeColor=#006EAF;fontSize=14;" parent="1" vertex="1">
          <mxGeometry x="95" y="360" width="130" height="80" as="geometry" />
        </mxCell>
        <mxCell id="ML-2b-T_SypkbBfhoKjK-6" value="End" style="ellipse;whiteSpace=wrap;html=1;fillColor=#fff2cc;strokeColor=#d6b656;fontSize=14;fontColor=#000000;" parent="1" vertex="1">
          <mxGeometry x="110" y="590" width="100" height="50" as="geometry" />
        </mxCell>
        <mxCell id="ML-2b-T_SypkbBfhoKjK-7" value="Give your Photograph" style="rounded=0;whiteSpace=wrap;html=1;fillColor=#ffff88;strokeColor=#36393d;fontSize=14;" parent="1" vertex="1">
          <mxGeometry x="460" y="125" width="200" height="70" as="geometry" />
        </mxCell>
        <mxCell id="ML-2b-T_SypkbBfhoKjK-8" value="Store the face data in folder on your name" style="rounded=0;whiteSpace=wrap;html=1;fillColor=#eeeeee;strokeColor=#36393d;fontSize=14;" parent="1" vertex="1">
          <mxGeometry x="455" y="230" width="210" height="80" as="geometry" />
        </mxCell>
        <mxCell id="ML-2b-T_SypkbBfhoKjK-14" value="" style="endArrow=none;html=1;rounded=0;exitX=1;exitY=0.5;exitDx=0;exitDy=0;entryX=0;entryY=0.5;entryDx=0;entryDy=0;" parent="1" source="ML-2b-T_SypkbBfhoKjK-2" target="ML-2b-T_SypkbBfhoKjK-7" edge="1">
          <mxGeometry width="50" height="50" relative="1" as="geometry">
            <mxPoint x="400" y="210" as="sourcePoint" />
            <mxPoint x="450" y="160" as="targetPoint" />
          </mxGeometry>
        </mxCell>
        <mxCell id="ML-2b-T_SypkbBfhoKjK-15" value="" style="endArrow=classic;html=1;rounded=0;exitX=0;exitY=0.5;exitDx=0;exitDy=0;entryX=1;entryY=0.5;entryDx=0;entryDy=0;" parent="1" source="ML-2b-T_SypkbBfhoKjK-8" target="ML-2b-T_SypkbBfhoKjK-3" edge="1">
          <mxGeometry width="50" height="50" relative="1" as="geometry">
            <mxPoint x="400" y="210" as="sourcePoint" />
            <mxPoint x="450" y="160" as="targetPoint" />
          </mxGeometry>
        </mxCell>
        <mxCell id="ML-2b-T_SypkbBfhoKjK-16" value="" style="endArrow=classic;html=1;rounded=0;exitX=1;exitY=0.5;exitDx=0;exitDy=0;entryX=0.598;entryY=-0.011;entryDx=0;entryDy=0;entryPerimeter=0;" parent="1" source="ML-2b-T_SypkbBfhoKjK-5" target="ML-2b-T_SypkbBfhoKjK-7" edge="1">
          <mxGeometry width="50" height="50" relative="1" as="geometry">
            <mxPoint x="400" y="220" as="sourcePoint" />
            <mxPoint x="510" y="80" as="targetPoint" />
            <Array as="points">
              <mxPoint x="750" y="400" />
              <mxPoint x="750" y="80" />
              <mxPoint x="580" y="80" />
            </Array>
          </mxGeometry>
        </mxCell>
        <mxCell id="ML-2b-T_SypkbBfhoKjK-17" value="" style="endArrow=none;html=1;rounded=0;entryX=0.582;entryY=0.994;entryDx=0;entryDy=0;entryPerimeter=0;exitX=0.578;exitY=0;exitDx=0;exitDy=0;exitPerimeter=0;" parent="1" source="ML-2b-T_SypkbBfhoKjK-8" target="ML-2b-T_SypkbBfhoKjK-7" edge="1">
          <mxGeometry width="50" height="50" relative="1" as="geometry">
            <mxPoint x="400" y="220" as="sourcePoint" />
            <mxPoint x="450" y="170" as="targetPoint" />
          </mxGeometry>
        </mxCell>
        <mxCell id="ML-2b-T_SypkbBfhoKjK-18" value="Yes" style="text;html=1;align=center;verticalAlign=middle;whiteSpace=wrap;rounded=0;" parent="1" vertex="1">
          <mxGeometry x="110" y="440" width="60" height="30" as="geometry" />
        </mxCell>
        <mxCell id="ML-2b-T_SypkbBfhoKjK-19" value="No" style="text;html=1;align=center;verticalAlign=middle;whiteSpace=wrap;rounded=0;" parent="1" vertex="1">
          <mxGeometry x="360" y="370" width="60" height="30" as="geometry" />
        </mxCell>
        <mxCell id="ML-2b-T_SypkbBfhoKjK-20" value="No" style="text;html=1;align=center;verticalAlign=middle;whiteSpace=wrap;rounded=0;" parent="1" vertex="1">
          <mxGeometry x="110" y="200" width="60" height="30" as="geometry" />
        </mxCell>
        <mxCell id="ML-2b-T_SypkbBfhoKjK-21" value="Text" style="text;html=1;align=center;verticalAlign=middle;whiteSpace=wrap;rounded=0;" parent="1" vertex="1">
          <mxGeometry x="400" y="260" width="60" height="30" as="geometry" />
        </mxCell>
      </root>
    </mxGraphModel>
  </diagram>
</mxfile>
